# xmcd
# Track frame offsets:
# 150
# 15396
# 28284
# 50246
# 65359
# 83664
# 97947
# 111787
# 127854
# 144991
# 156856
# 173564
# 188436
# 201640
#
# Disc length: 2920 seconds
# Revision: 0
# Processed by: cddbd v1.5.2PL0 Copyright (c) Steve Scherf et al.
# Submitted via: VisiTrax 2.10.0.248 - For more info visit www.synapsa.com
#
DISCID=b20b660e
DTITLE=Various Artist - Mr Music Country 12-06
DYEAR=2006
DGENRE=Country
TTITLE0=Red Jenkins and Ed Bruce (Intro: Merle Kilgore) - The Bartender (It's Al
TTITLE0=l On The Jukebox)
TTITLE1=Kina Lankford - Songs About Saturday Night
TTITLE2=Jackson Taylor Band - Are The Good Times Really Over
TTITLE3=Bubba Cox - Rosaleena
TTITLE4=Travis Tritt - Loving Time Of The Year
TTITLE5=Amber Digby - Bitter They Are
TTITLE6=Jake Hooker - Tom's Place
TTITLE7=Inger Nordström 'n' Her Rhinestone Band - Ain't No Christmas
TTITLE8=George Jones - 50.000 Names
TTITLE9=Joni Harms - Joseph Built The Cradle
TTITLE10=Kenny Chesney and Willie Nelson - Pretty Paper
TTITLE11=Albert and Gage - Christmas Every Day
TTITLE12=Narvel felts - You Can't Have a White Christmas
TTITLE13=Mona McCall (Intro: Justin Trevino) - Remind Me Dear Lord
EXTD=
EXTT0=
EXTT1=
EXTT2=
EXTT3=
EXTT4=
EXTT5=
EXTT6=
EXTT7=
EXTT8=
EXTT9=
EXTT10=
EXTT11=
EXTT12=
EXTT13=
PLAYORDER=
